<svg width="300" height="140" viewBox="0 0 300 140" fill="none" xmlns="http://www.w3.org/2000/svg">
  <!-- Eyelash fan - base curve -->
  <path d="M95 85 Q150 55 210 75" stroke="#F47B3E" stroke-width="3.5" stroke-linecap="round" fill="none"/>

  <!-- Lash strands fanning upward from right anchor -->
  <path d="M207 76 Q185 38 148 18" stroke="#F47B3E" stroke-width="4.5" stroke-linecap="round" fill="none"/>
  <path d="M205 72 Q188 32 158 10" stroke="#F47B3E" stroke-width="4" stroke-linecap="round" fill="none"/>
  <path d="M202 70 Q190 28 170 8"  stroke="#F47B3E" stroke-width="3.5" stroke-linecap="round" fill="none"/>
  <path d="M198 68 Q192 26 182 8"  stroke="#F47B3E" stroke-width="3" stroke-linecap="round" fill="none"/>
  <path d="M194 66 Q193 26 193 10" stroke="#F47B3E" stroke-width="2.8" stroke-linecap="round" fill="none"/>
  <path d="M189 65 Q193 28 203 13" stroke="#F47B3E" stroke-width="2.5" stroke-linecap="round" fill="none"/>
  <path d="M184 64 Q192 32 210 18" stroke="#F47B3E" stroke-width="2.2" stroke-linecap="round" fill="none"/>
  <path d="M178 63 Q190 36 214 24" stroke="#F47B3E" stroke-width="2"   stroke-linecap="round" fill="none"/>
  <path d="M172 62 Q187 40 216 32" stroke="#F47B3E" stroke-width="1.8" stroke-linecap="round" fill="none"/>

  <!-- Text -->
  <text y="122" font-family="Arial Rounded MT Bold, Arial, sans-serif" font-weight="900" font-size="58" letter-spacing="-1">
    <tspan x="28" fill="#F47B3E">lash</tspan><tspan fill="#9B85C9">zone</tspan>
  </text>
</svg>
